<svg width="68" height="68" viewBox="0 0 68 68" fill="none" xmlns="http://www.w3.org/2000/svg">
<rect width="68" height="68" rx="34" fill="url(#paint0_linear_3_1571)"/>
<path d="M52.75 34.625C52.7482 32.9693 52.2776 31.348 51.3928 29.9485C50.508 28.5491 49.245 27.4288 47.7501 26.7171L47.75 25.25C47.7506 23.6384 47.2318 22.0695 46.2707 20.7759C45.3096 19.4823 43.9572 18.5329 42.414 18.0683C40.8708 17.6037 39.219 17.6487 37.7035 18.1967C36.1879 18.7447 34.8892 19.7664 34 21.1104C33.1108 19.7664 31.8121 18.7447 30.2966 18.1967C28.781 17.6487 27.1292 17.6037 25.586 18.0683C24.0429 18.5328 22.6905 19.4823 21.7293 20.7759C20.7682 22.0695 20.2494 23.6383 20.25 25.2499L20.2499 26.7171C18.7539 27.4268 17.4899 28.5465 16.6049 29.9459C15.7198 31.3454 15.25 32.9673 15.25 34.6231C15.25 36.2789 15.7198 37.9008 16.6049 39.3003C17.49 40.6997 18.754 41.8193 20.25 42.529V42.75C20.2494 44.3616 20.7682 45.9305 21.7293 47.2241C22.6904 48.5177 24.0428 49.4671 25.586 49.9317C27.1292 50.3963 28.781 50.3513 30.2965 49.8033C31.8121 49.2553 33.1108 48.2336 34 46.8896C34.8892 48.2336 36.1879 49.2553 37.7035 49.8033C39.219 50.3513 40.8708 50.3963 42.414 49.9317C43.9572 49.4671 45.3096 48.5177 46.2707 47.2241C47.2318 45.9305 47.7506 44.3616 47.75 42.75V42.529C49.245 41.8185 50.5081 40.6989 51.393 39.3001C52.2779 37.9012 52.7484 36.2803 52.75 34.625ZM27.75 47.75C26.5176 47.7484 25.329 47.2923 24.4119 46.4691C23.4947 45.6458 22.9135 44.5132 22.7794 43.288C23.1837 43.3454 23.5916 43.3744 24 43.375H25.25C25.5815 43.375 25.8995 43.2433 26.1339 43.0089C26.3683 42.7745 26.5 42.4565 26.5 42.125C26.5 41.7935 26.3683 41.4755 26.1339 41.2411C25.8995 41.0067 25.5815 40.875 25.25 40.875H24C22.5256 40.8747 21.0987 40.3532 19.9715 39.4027C18.8443 38.4523 18.0893 37.1339 17.84 35.6807C17.5907 34.2275 17.8631 32.7329 18.609 31.4611C19.355 30.1893 20.5265 29.222 21.9165 28.7303C22.1602 28.6442 22.3712 28.4846 22.5204 28.2735C22.6697 28.0625 22.7498 27.8104 22.7498 27.5519L22.75 25.25C22.75 23.9239 23.2768 22.6521 24.2145 21.7145C25.1521 20.7768 26.4239 20.25 27.75 20.25C29.0761 20.25 30.3479 20.7768 31.2855 21.7145C32.2232 22.6521 32.75 23.9239 32.75 25.25V37.1659C31.3774 35.9313 29.5962 35.2487 27.75 35.25C27.4185 35.25 27.1005 35.3817 26.8661 35.6161C26.6317 35.8505 26.5 36.1685 26.5 36.5C26.5 36.8315 26.6317 37.1495 26.8661 37.3839C27.1005 37.6183 27.4185 37.75 27.75 37.75C29.0761 37.75 30.3479 38.2768 31.2855 39.2145C32.2232 40.1521 32.75 41.4239 32.75 42.75C32.75 44.0761 32.2232 45.3479 31.2855 46.2855C30.3479 47.2232 29.0761 47.75 27.75 47.75ZM44 40.875H42.75C42.4185 40.875 42.1005 41.0067 41.8661 41.2411C41.6317 41.4755 41.5 41.7935 41.5 42.125C41.5 42.4565 41.6317 42.7745 41.8661 43.0089C42.1005 43.2433 42.4185 43.375 42.75 43.375H44C44.4084 43.3744 44.8163 43.3454 45.2206 43.288C45.1167 44.2483 44.7367 45.158 44.1268 45.907C43.5169 46.656 42.703 47.2123 41.7837 47.5086C40.8643 47.8049 39.8788 47.8286 38.9463 47.5768C38.0137 47.3249 37.1741 46.8084 36.5289 46.0895C35.8837 45.3707 35.4606 44.4803 35.3106 43.5261C35.1606 42.5719 35.2903 41.5946 35.6839 40.7125C36.0775 39.8304 36.7182 39.0812 37.5285 38.5555C38.3388 38.0297 39.2841 37.75 40.25 37.75C40.5815 37.75 40.8995 37.6183 41.1339 37.3839C41.3683 37.1495 41.5 36.8315 41.5 36.5C41.5 36.1685 41.3683 35.8505 41.1339 35.6161C40.8995 35.3817 40.5815 35.25 40.25 35.25C38.4038 35.2487 36.6226 35.9313 35.25 37.1659V25.25C35.25 23.9239 35.7768 22.6522 36.7145 21.7145C37.6522 20.7768 38.924 20.25 40.25 20.25C41.5761 20.25 42.8479 20.7768 43.7856 21.7145C44.7232 22.6522 45.25 23.924 45.25 25.2501L45.2502 27.5519C45.2502 27.8104 45.3303 28.0625 45.4796 28.2735C45.6288 28.4846 45.8398 28.6442 46.0835 28.7303C47.4735 29.222 48.645 30.1893 49.391 31.4611C50.1369 32.7329 50.4093 34.2275 50.16 35.6807C49.9107 37.1339 49.1557 38.4523 48.0285 39.4027C46.9013 40.3532 45.4744 40.8747 44 40.875ZM23.375 34C23.0435 34 22.7255 33.8683 22.4911 33.6339C22.2567 33.3995 22.125 33.0815 22.125 32.75C22.125 32.4185 22.2567 32.1005 22.4911 31.8661C22.7255 31.6317 23.0435 31.5 23.375 31.5C24.2035 31.4991 24.9978 31.1695 25.5837 30.5837C26.1695 29.9978 26.4991 29.2035 26.5 28.375V27.125C26.5 26.7935 26.6317 26.4755 26.8661 26.2411C27.1005 26.0067 27.4185 25.875 27.75 25.875C28.0815 25.875 28.3995 26.0067 28.6339 26.2411C28.8683 26.4755 29 26.7935 29 27.125V28.375C28.9983 29.8663 28.4051 31.2961 27.3506 32.3506C26.2961 33.4051 24.8663 33.9983 23.375 34ZM45.875 32.75C45.875 33.0815 45.7433 33.3995 45.5089 33.6339C45.2745 33.8683 44.9565 34 44.625 34C43.1337 33.9983 41.7039 33.4051 40.6494 32.3506C39.5949 31.2961 39.0017 29.8663 39 28.375V27.125C39 26.7935 39.1317 26.4755 39.3661 26.2411C39.6005 26.0067 39.9185 25.875 40.25 25.875C40.5815 25.875 40.8995 26.0067 41.1339 26.2411C41.3683 26.4755 41.5 26.7935 41.5 27.125V28.375C41.5009 29.2035 41.8305 29.9978 42.4163 30.5837C43.0022 31.1695 43.7965 31.4991 44.625 31.5C44.9565 31.5 45.2745 31.6317 45.5089 31.8661C45.7433 32.1005 45.875 32.4185 45.875 32.75Z" fill="white"/>
<defs>
<linearGradient id="paint0_linear_3_1571" x1="0" y1="0" x2="68" y2="68" gradientUnits="userSpaceOnUse">
<stop stop-color="#BC2DD5"/>
<stop offset="1" stop-color="#9E07A1"/>
</linearGradient>
</defs>
</svg>
