<svg width="68" height="68" viewBox="0 0 68 68" fill="none" xmlns="http://www.w3.org/2000/svg">
<rect width="68" height="68" rx="34" fill="url(#paint0_linear_3_1557)"/>
<path d="M32.0166 47.9667C31.0126 47.9655 30.0492 47.5705 29.3333 46.8667L21 38.5333C20.6467 38.1832 20.3663 37.7665 20.175 37.3073C19.9836 36.8482 19.8851 36.3557 19.8851 35.8583C19.8851 35.361 19.9836 34.8685 20.175 34.4093C20.3663 33.9502 20.6467 33.5335 21 33.1833L21.3833 32.7833C22.0978 32.077 23.0619 31.6808 24.0666 31.6808C25.0713 31.6808 26.0355 32.077 26.75 32.7833L35.0833 41.1167C35.4365 41.4668 35.717 41.8835 35.9083 42.3427C36.0996 42.8018 36.1981 43.2943 36.1981 43.7917C36.1981 44.289 36.0996 44.7815 35.9083 45.2407C35.717 45.6998 35.4365 46.1165 35.0833 46.4667L34.7 46.8667C33.9841 47.5705 33.0206 47.9655 32.0166 47.9667ZM24.0833 34.1833C23.9164 34.1813 23.7508 34.2127 23.5962 34.2757C23.4416 34.3387 23.3012 34.4318 23.1833 34.55L22.7833 34.95C22.6639 35.0692 22.5691 35.2108 22.5045 35.3667C22.4398 35.5225 22.4065 35.6895 22.4065 35.8583C22.4065 36.027 22.4398 36.1942 22.5045 36.35C22.5691 36.5058 22.6639 36.6475 22.7833 36.7667L31.1166 45.1C31.3601 45.3422 31.6898 45.4782 32.0333 45.4782C32.3768 45.4782 32.7063 45.3422 32.95 45.1L33.3333 44.7C33.4556 44.581 33.5528 44.4383 33.6186 44.2809C33.6845 44.1234 33.7178 43.954 33.7166 43.7833C33.7175 43.6152 33.684 43.4485 33.618 43.2937C33.5521 43.1388 33.4551 42.9993 33.3333 42.8833L25 34.55C24.879 34.4313 24.7356 34.3378 24.5783 34.275C24.421 34.212 24.2527 34.1808 24.0833 34.1833Z" fill="white"/>
<path d="M43.8667 36.2833C42.8607 36.276 41.8975 35.8752 41.1833 35.1667L32.85 26.8333C32.1397 26.121 31.7407 25.156 31.7407 24.15C31.7407 23.144 32.1397 22.179 32.85 21.4667L33.25 21.0667C33.9617 20.3614 34.923 19.9656 35.925 19.9656C36.927 19.9656 37.8883 20.3614 38.6 21.0667L46.9333 29.4C47.6387 30.1117 48.0343 31.073 48.0343 32.075C48.0343 33.077 47.6387 34.0383 46.9333 34.75L46.5333 35.15C45.826 35.8607 44.8692 36.2672 43.8667 36.2833ZM35.9333 22.4833C35.765 22.4815 35.598 22.5146 35.4432 22.5806C35.2882 22.6466 35.1487 22.744 35.0333 22.8667L34.6333 23.25C34.3912 23.4936 34.2552 23.8232 34.2552 24.1667C34.2552 24.5102 34.3912 24.8398 34.6333 25.0833L42.9667 33.4167C43.2102 33.6588 43.5398 33.7948 43.8833 33.7948C44.2268 33.7948 44.5563 33.6588 44.8 33.4167L45.1833 33.0167C45.3052 32.9007 45.4022 32.761 45.468 32.6063C45.534 32.4515 45.5675 32.2848 45.5667 32.1167C45.5678 31.946 45.5345 31.7767 45.4687 31.6192C45.4028 31.4617 45.3057 31.319 45.1833 31.2L36.85 22.8667C36.7303 22.7451 36.5877 22.6485 36.4303 22.5827C36.2728 22.5169 36.104 22.4831 35.9333 22.4833Z" fill="white"/>
<path d="M46.5833 31.0167C45.5793 31.0155 44.6158 30.6206 43.9 29.9167L38.2166 24.2167C37.8635 23.8665 37.583 23.4498 37.3916 22.9907C37.2003 22.5316 37.1018 22.0391 37.1018 21.5417C37.1018 21.0443 37.2003 20.5518 37.3916 20.0927C37.583 19.6336 37.8635 19.2169 38.2166 18.8667L38.6 18.4667C39.3123 17.7563 40.2773 17.3574 41.2833 17.3574C42.2893 17.3574 43.2543 17.7563 43.9666 18.4667L49.6666 24.15C50.373 24.8645 50.7691 25.8287 50.7691 26.8334C50.7691 27.8381 50.373 28.8022 49.6666 29.5167L49.2666 29.9167C48.5508 30.6206 47.5873 31.0155 46.5833 31.0167ZM41.2833 19.85C40.9398 19.8549 40.6115 19.9923 40.3666 20.2334L39.9833 20.6667C39.8638 20.7859 39.7691 20.9275 39.7045 21.0833C39.6398 21.2392 39.6065 21.4063 39.6065 21.575C39.6065 21.7438 39.6398 21.9108 39.7045 22.0667C39.7691 22.2226 39.8638 22.3642 39.9833 22.4834L45.6666 28.15C45.9103 28.3923 46.2398 28.5282 46.5833 28.5282C46.9268 28.5282 47.2563 28.3923 47.5 28.15L47.8833 27.75C48.0053 27.6305 48.1021 27.4879 48.1683 27.3305C48.2345 27.1731 48.2685 27.0041 48.2685 26.8334C48.2685 26.6626 48.2345 26.4936 48.1683 26.3362C48.1021 26.1788 48.0053 26.0362 47.8833 25.9167L42.2 20.2334C41.9573 19.9892 41.6276 19.8514 41.2833 19.85Z" fill="white"/>
<path d="M26.7167 50.6667C26.2108 50.6708 25.7094 50.5725 25.2425 50.3777C24.7756 50.183 24.353 49.8957 24 49.5333L18.35 43.85C17.9963 43.4983 17.7155 43.0803 17.5239 42.6198C17.3324 42.1593 17.2338 41.6655 17.2338 41.1667C17.2338 40.6678 17.3324 40.174 17.5239 39.7135C17.7155 39.253 17.9963 38.835 18.35 38.4833L18.7333 38.0833C19.4478 37.377 20.412 36.9808 21.4167 36.9808C22.4214 36.9808 23.3855 37.377 24.1 38.0833L29.7833 43.7833C30.1366 44.1335 30.417 44.5502 30.6083 45.0093C30.7997 45.4685 30.8982 45.961 30.8982 46.4583C30.8982 46.9557 30.7997 47.4482 30.6083 47.9073C30.417 48.3665 30.1366 48.7832 29.7833 49.1333L29.4 49.5333C29.0504 49.891 28.633 50.1753 28.1723 50.3698C27.7116 50.5645 27.2168 50.6653 26.7167 50.6667ZM21.4167 39.5C21.2472 39.4975 21.079 39.5287 20.9217 39.5917C20.7643 39.6547 20.621 39.748 20.5 39.8667L20.1167 40.2667C19.9947 40.3862 19.8978 40.5288 19.8317 40.6862C19.7656 40.8437 19.7315 41.0127 19.7315 41.1833C19.7315 41.354 19.7656 41.5232 19.8317 41.6805C19.8978 41.8378 19.9947 41.9805 20.1167 42.1L25.8 47.7833C25.9192 47.9028 26.0608 47.9975 26.2167 48.0622C26.3725 48.1268 26.5396 48.1602 26.7083 48.1602C26.8771 48.1602 27.0442 48.1268 27.2 48.0622C27.3559 47.9975 27.4975 47.9028 27.6167 47.7833L28.0167 47.3333C28.1361 47.2142 28.2309 47.0725 28.2955 46.9167C28.3602 46.7608 28.3934 46.5937 28.3934 46.425C28.3934 46.2563 28.3602 46.0892 28.2955 45.9333C28.2309 45.7775 28.1361 45.6358 28.0167 45.5167L22.3333 39.85C22.2123 39.7313 22.069 39.638 21.9117 39.575C21.7543 39.512 21.5861 39.4808 21.4167 39.4833V39.5Z" fill="white"/>
<path d="M31.9666 41C31.802 41.0037 31.6383 40.973 31.4863 40.9098C31.3341 40.8467 31.197 40.7525 31.0833 40.6333L27.3333 36.95C27.2154 36.8352 27.1217 36.6977 27.0577 36.546C26.9937 36.3943 26.9607 36.2313 26.9607 36.0667C26.9607 35.902 26.9937 35.739 27.0577 35.5873C27.1217 35.4357 27.2154 35.2982 27.3333 35.1833L35.1833 27.3333C35.297 27.2141 35.4341 27.1199 35.5863 27.0568C35.7383 26.9936 35.902 26.963 36.0666 26.9667C36.2313 26.963 36.395 26.9936 36.547 27.0568C36.6991 27.1199 36.8363 27.2141 36.95 27.3333L40.6666 31.0833C40.7846 31.1982 40.8783 31.3357 40.9423 31.4873C41.0063 31.639 41.0393 31.802 41.0393 31.9667C41.0393 32.1313 41.0063 32.2943 40.9423 32.446C40.8783 32.5977 40.7846 32.7352 40.6666 32.85L32.85 40.6667C32.7335 40.7798 32.595 40.8678 32.443 40.9252C32.291 40.9827 32.1288 41.008 31.9666 41ZM30.05 36L31.9666 37.9167L37.9833 31.9L36.0666 30.05L30.05 36Z" fill="white"/>
<defs>
<linearGradient id="paint0_linear_3_1557" x1="0" y1="0" x2="68" y2="68" gradientUnits="userSpaceOnUse">
<stop stop-color="#CF3434"/>
<stop offset="1" stop-color="#B61711"/>
</linearGradient>
</defs>
</svg>
