<svg width="68" height="68" viewBox="0 0 68 68" fill="none" xmlns="http://www.w3.org/2000/svg">
<rect width="68" height="68" rx="34" fill="url(#paint0_linear_3_1603)"/>
<path d="M21.1514 21.3568C25.2413 17.8733 30.4603 18.6274 33.9989 21.6516C37.5289 18.6268 42.6764 17.9169 46.8106 21.3422C51.3437 25.0979 51.8889 31.5083 48.3976 35.9867L48.3976 35.9868C47.0794 37.6775 44.5154 40.2083 42.0619 42.5168C39.5764 44.8554 37.0969 47.065 35.8744 48.1443L35.8741 48.1445C35.7578 48.2471 35.5987 48.3892 35.4457 48.504C35.273 48.6337 35.0193 48.7991 34.6786 48.9002L34.6785 48.9003C34.2306 49.0333 33.7493 49.0334 33.3009 48.9002C32.9604 48.7991 32.7068 48.6339 32.5338 48.5041C32.3806 48.3891 32.2215 48.2471 32.105 48.1442V48.1441C30.8823 47.0648 28.403 44.8553 25.9176 42.5168C23.4641 40.2083 20.9 37.6775 19.5819 35.9868C16.0758 31.4894 16.7225 25.1289 21.1514 21.3568ZM32.7351 25.0857C30.1922 22.1221 26.2164 21.4213 23.3127 23.8944C20.2264 26.5231 19.8151 30.8643 22.2107 33.9373L22.2648 34.0062C23.4203 35.4673 25.7599 37.7915 28.2018 40.0891C30.4501 42.2045 32.6994 44.2182 33.9897 45.3611C35.2801 44.2182 37.5293 42.2045 39.7776 40.0891C42.2583 37.755 44.6334 35.3935 45.7687 33.9372C48.1791 30.8454 47.7953 26.4867 44.684 23.909C41.7 21.4367 37.7957 22.1362 35.2648 25.0857C34.9482 25.4547 34.4862 25.667 34 25.667C33.5138 25.667 33.0518 25.4547 32.7351 25.0857Z" fill="white"/>
<defs>
<linearGradient id="paint0_linear_3_1603" x1="0" y1="0" x2="68" y2="68" gradientUnits="userSpaceOnUse">
<stop stop-color="#F36594"/>
<stop offset="1" stop-color="#EF477F"/>
</linearGradient>
</defs>
</svg>
