<svg width="68" height="68" viewBox="0 0 68 68" fill="none" xmlns="http://www.w3.org/2000/svg">
<rect width="68" height="68" rx="34" fill="url(#paint0_linear_3_1593)"/>
<path fill-rule="evenodd" clip-rule="evenodd" d="M34.435 15.7244C35.1619 15.9209 35.6667 16.5804 35.6667 17.3333V29H45.6667C46.2635 29 46.8147 29.3191 47.1119 29.8366C47.4092 30.354 47.407 30.9909 47.1064 31.5064L35.4397 51.5064C35.0602 52.1569 34.2919 52.472 33.565 52.2755C32.8382 52.079 32.3334 51.4195 32.3334 50.6667V39H22.3334C21.7366 39 21.1854 38.6809 20.8881 38.1634C20.5909 37.6459 20.593 37.009 20.8937 36.4935L32.5604 16.4935C32.9399 15.8431 33.7082 15.5279 34.435 15.7244ZM25.2351 35.6667H34C34.9205 35.6667 35.6667 36.4129 35.6667 37.3334V44.5017L42.765 32.3334H34C33.0795 32.3334 32.3334 31.5872 32.3334 30.6667V23.4982L25.2351 35.6667Z" fill="white"/>
<defs>
<linearGradient id="paint0_linear_3_1593" x1="0" y1="0" x2="68" y2="68" gradientUnits="userSpaceOnUse">
<stop stop-color="#CF9634"/>
<stop offset="1" stop-color="#B67A11"/>
</linearGradient>
</defs>
</svg>
