<svg width="68" height="68" viewBox="0 0 68 68" fill="none" xmlns="http://www.w3.org/2000/svg">
<rect width="68" height="68" rx="34" fill="url(#paint0_linear_3_1581)"/>
<path d="M43.369 29.8252L43.355 29.8014L43.3366 29.7755L34 16.3256L24.6461 29.7993L24.6299 29.8252C22.7539 32.7745 21.481 36.1844 21.4746 39.6117C21.4734 41.0842 21.7162 42.5589 22.2642 43.9656C22.8101 45.3723 23.6645 46.7057 24.8404 47.8815H24.8415C27.3656 50.4069 30.6904 51.6765 34 51.6744C37.3097 51.6765 40.6333 50.4069 43.1586 47.8814C44.3356 46.7056 45.19 45.3722 45.7358 43.9666C46.2838 42.5588 46.5255 41.0842 46.5255 39.6127C46.519 36.1845 45.2461 32.7745 43.369 29.8252ZM42.8469 42.8426C42.4521 43.8555 41.8491 44.806 40.9677 45.6894C39.04 47.6161 36.5275 48.573 34 48.5751C31.4725 48.573 28.96 47.6161 27.0323 45.6894C26.1499 44.8059 25.5479 43.8555 25.152 42.8415C24.7583 41.8285 24.5738 40.7465 24.5738 39.6117C24.5663 36.9827 25.5997 34.0658 27.234 31.508L34 21.7603L40.7681 31.5102C42.4003 34.0679 43.4327 36.9838 43.4262 39.6127C43.4262 40.7476 43.2417 41.8296 42.8469 42.8426Z" fill="white"/>
<path d="M30.5016 32.7421C28.8845 34.5393 26.3095 39.2697 27.9266 42.5631C29.7324 46.2417 32.1898 44.055 31.0409 41.726C28.8252 37.2341 30.5016 32.7421 30.5016 32.7421Z" fill="white"/>
<defs>
<linearGradient id="paint0_linear_3_1581" x1="0" y1="0" x2="68" y2="68" gradientUnits="userSpaceOnUse">
<stop stop-color="#3493CF"/>
<stop offset="1" stop-color="#116CB6"/>
</linearGradient>
</defs>
</svg>
